solid tetrahedron
facet normal 0.0 0.57735 0.816497
  outer loop
    vertex 70.7107 50.0 0.0
    vertex -70.7107 50.0 0.0
    vertex 0.0 -50.0 70.7107
  endloop
endfacet
facet normal 0.816497 -0.57735 0.0
  outer loop
    vertex 70.7107 50.0 0.0
    vertex 0.0 -50.0 70.7107
    vertex 0.0 -50.0 -70.7107
  endloop
endfacet
facet normal 0.0 0.57735 -0.816497
  outer loop
    vertex 70.7107 50.0 0.0
    vertex 0.0 -50.0 -70.7107
    vertex -70.7107 50.0 0.0
  endloop
endfacet
facet normal -0.816497 -0.57735 0.0
  outer loop
    vertex -70.7107 50.0 0.0
    vertex 0.0 -50.0 -70.7107
    vertex 0.0 -50.0 70.7107
  endloop
endfacet
endsolid tetrahedron
