solid icosahedron
facet normal -0.0 0.35682208977309 0.934172358962716
  outer loop
    vertex -50.0 0.0 80.9016994374947
    vertex 50.0 0.0 80.9016994374947
    vertex 0.0 80.9016994374947 50.0
  endloop
endfacet
facet normal -0.577350269189626 0.577350269189626 0.577350269189626
  outer loop
    vertex -50.0 0.0 80.9016994374947
    vertex 0.0 80.9016994374947 50.0
    vertex -80.9016994374947 50.0 0.0
  endloop
endfacet
facet normal -0.934172358962716 0.0 0.35682208977309
  outer loop
    vertex -50.0 0.0 80.9016994374947
    vertex -80.9016994374947 50.0 0.0
    vertex -80.9016994374947 -50.0 0.0
  endloop
endfacet
facet normal -0.577350269189626 -0.577350269189626 0.577350269189626
  outer loop
    vertex -50.0 0.0 80.9016994374947
    vertex -80.9016994374947 -50.0 0.0
    vertex 0.0 -80.9016994374947 50.0
  endloop
endfacet
facet normal 0.0 -0.35682208977309 0.934172358962716
  outer loop
    vertex -50.0 0.0 80.9016994374947
    vertex 0.0 -80.9016994374947 50.0
    vertex 50.0 0.0 80.9016994374947
  endloop
endfacet
facet normal 0.934172358962716 0.0 -0.35682208977309
  outer loop
    vertex 50.0 0.0 -80.9016994374947
    vertex 80.9016994374947 50.0 0.0
    vertex 80.9016994374947 -50.0 0.0
  endloop
endfacet
facet normal 0.577350269189626 0.577350269189626 -0.577350269189626
  outer loop
    vertex 50.0 0.0 -80.9016994374947
    vertex 0.0 80.9016994374947 -50.0
    vertex 80.9016994374947 50.0 0.0
  endloop
endfacet
facet normal 0.0 0.35682208977309 -0.934172358962716
  outer loop
    vertex 50.0 0.0 -80.9016994374947
    vertex -50.0 0.0 -80.9016994374947
    vertex 0.0 80.9016994374947 -50.0
  endloop
endfacet
facet normal -0.0 -0.35682208977309 -0.934172358962716
  outer loop
    vertex 50.0 0.0 -80.9016994374947
    vertex 0.0 -80.9016994374947 -50.0
    vertex -50.0 0.0 -80.9016994374947
  endloop
endfacet
facet normal 0.577350269189626 -0.577350269189626 -0.577350269189626
  outer loop
    vertex 50.0 0.0 -80.9016994374947
    vertex 80.9016994374947 -50.0 0.0
    vertex 0.0 -80.9016994374947 -50.0
  endloop
endfacet
facet normal 0.934172358962716 0.0 0.35682208977309
  outer loop
    vertex 50.0 0.0 80.9016994374947
    vertex 80.9016994374947 -50.0 0.0
    vertex 80.9016994374947 50.0 0.0
  endloop
endfacet
facet normal 0.577350269189626 0.577350269189626 0.577350269189626
  outer loop
    vertex 50.0 0.0 80.9016994374947
    vertex 80.9016994374947 50.0 0.0
    vertex 0.0 80.9016994374947 50.0
  endloop
endfacet
facet normal 0.35682208977309 0.934172358962716 0.0
  outer loop
    vertex 0.0 80.9016994374947 50.0
    vertex 80.9016994374947 50.0 0.0
    vertex 0.0 80.9016994374947 -50.0
  endloop
endfacet
facet normal -0.35682208977309 0.934172358962716 0.0
  outer loop
    vertex 0.0 80.9016994374947 50.0
    vertex 0.0 80.9016994374947 -50.0
    vertex -80.9016994374947 50.0 0.0
  endloop
endfacet
facet normal -0.577350269189626 0.577350269189626 -0.577350269189626
  outer loop
    vertex -80.9016994374947 50.0 0.0
    vertex 0.0 80.9016994374947 -50.0
    vertex -50.0 0.0 -80.9016994374947
  endloop
endfacet
facet normal -0.934172358962716 -0.0 -0.35682208977309
  outer loop
    vertex -80.9016994374947 50.0 0.0
    vertex -50.0 0.0 -80.9016994374947
    vertex -80.9016994374947 -50.0 0.0
  endloop
endfacet
facet normal -0.577350269189626 -0.577350269189626 -0.577350269189626
  outer loop
    vertex -80.9016994374947 -50.0 0.0
    vertex -50.0 0.0 -80.9016994374947
    vertex 0.0 -80.9016994374947 -50.0
  endloop
endfacet
facet normal -0.35682208977309 -0.934172358962716 0.0
  outer loop
    vertex -80.9016994374947 -50.0 0.0
    vertex 0.0 -80.9016994374947 -50.0
    vertex 0.0 -80.9016994374947 50.0
  endloop
endfacet
facet normal 0.35682208977309 -0.934172358962716 0.0
  outer loop
    vertex 0.0 -80.9016994374947 50.0
    vertex 0.0 -80.9016994374947 -50.0
    vertex 80.9016994374947 -50.0 0.0
  endloop
endfacet
facet normal 0.577350269189626 -0.577350269189626 0.577350269189626
  outer loop
    vertex 0.0 -80.9016994374947 50.0
    vertex 80.9016994374947 -50.0 0.0
    vertex 50.0 0.0 80.9016994374947
  endloop
endfacet
endsolid
